<svg width="213" height="213" viewBox="0 0 3840 3840" fill="none" xmlns="http://www.w3.org/2000/svg">
<g clip-path="url(#clip0_1151_44)">
<path d="M0 329.143C0 147.362 147.362 0 329.143 0H3510.86C3692.64 0 3840 147.362 3840 329.143V3510.86C3840 3692.64 3692.64 3840 3510.86 3840H329.143C147.362 3840 0 3692.64 0 3510.86V329.143Z" fill="#162329"/>
<g filter="url(#filter0_i_1151_44)">
<path d="M2818.16 1105.18C2537.36 1090.78 2287.76 1210.78 2124.56 1408.78C2124.56 1408.78 1940.96 1646.38 1940.96 1645.18C1940.96 1645.18 1709.36 1948.78 1710.56 1948.78L1511.36 2210.38L1495.76 2230.78C1381.76 2383.18 1180.16 2468.38 967.756 2405.98C806.956 2357.98 680.956 2223.58 644.956 2060.38C574.156 1749.58 810.556 1472.38 1109.36 1472.38C1254.56 1472.38 1362.56 1533.58 1436.96 1598.38C1516.16 1667.98 1637.36 1657.18 1702.16 1573.18C1758.56 1499.98 1751.36 1394.38 1684.16 1331.98C1304.96 983.982 587.356 1063.18 358.156 1546.78C60.5561 2174.38 514.156 2793.58 1109.36 2793.58C1370.96 2793.58 1604.96 2677.18 1759.76 2489.98L1811.36 2422.78C1811.36 2422.78 1942.16 2251.18 1942.16 2252.38C1942.16 2252.38 2173.76 1948.78 2172.56 1948.78L2375.36 1683.58C2380.16 1677.58 2384.96 1671.58 2389.76 1665.58C2494.16 1523.98 2674.16 1443.58 2872.16 1481.98C3047.36 1516.78 3192.56 1653.58 3235.76 1827.58C3314.96 2143.18 3077.36 2427.58 2773.76 2427.58C2630.96 2427.58 2522.96 2366.38 2448.56 2300.38C2369.36 2230.78 2246.96 2242.78 2183.36 2326.78C2124.56 2403.58 2135.36 2510.38 2207.36 2575.18C2318.96 2674.78 2509.76 2795.98 2773.76 2795.98C3277.76 2795.98 3679.76 2353.18 3611.36 1835.98C3558.56 1437.58 3217.76 1125.58 2818.16 1105.18Z" fill="url(#paint0_linear_1151_44)"/>
</g>
</g>
<defs>
<filter id="filter0_i_1151_44" x="264.309" y="1103.42" width="3355.25" height="1692.57" filterUnits="userSpaceOnUse" color-interpolation-filters="sRGB">
<feFlood flood-opacity="0" result="BackgroundImageFix"/>
<feBlend mode="normal" in="SourceGraphic" in2="BackgroundImageFix" result="shape"/>
<feColorMatrix in="SourceAlpha" type="matrix" values="0 0 0 0 0 0 0 0 0 0 0 0 0 0 0 0 0 0 127 0" result="hardAlpha"/>
<feOffset dx="0.6" dy="-0.6"/>
<feGaussianBlur stdDeviation="0.75"/>
<feComposite in2="hardAlpha" operator="arithmetic" k2="-1" k3="1"/>
<feColorMatrix type="matrix" values="0 0 0 0 0.901961 0 0 0 0 0.611765 0 0 0 0 0.239216 0 0 0 1 0"/>
<feBlend mode="normal" in2="shape" result="effect1_innerShadow_1151_44"/>
</filter>
<linearGradient id="paint0_linear_1151_44" x1="1128.31" y1="1846.64" x2="3883.62" y2="1846.64" gradientUnits="userSpaceOnUse">
<stop stop-color="#EFD05A"/>
<stop offset="1" stop-color="#F8EAB2"/>
</linearGradient>
<clipPath id="clip0_1151_44">
<rect width="3840" height="3840" rx="60" fill="white"/>
</clipPath>
</defs>
</svg>
